<svg width="266" height="268" viewBox="0 0 266 268" fill="none" xmlns="http://www.w3.org/2000/svg">
<g filter="url(#filter0_d_2131_269)">
<rect x="8" width="250" height="250" rx="45" fill="url(#paint0_linear_2131_269)"/>
<rect x="12" y="4" width="242" height="242" rx="41" stroke="url(#paint1_linear_2131_269)" stroke-width="8"/>
</g>
<rect x="16" y="8" width="234" height="234" rx="37" fill="white"/>
<path d="M208.872 81.008L193.129 114.953L178.347 81.008H155.76L181.63 133.54V161.362H202.302V133.54L229.951 81.008H208.872Z" fill="#99CC00"/>
<path d="M175.186 135.459V120.451L175.185 120.449C175.157 120.312 170.731 98.1672 159.477 88.5563L159.477 88.5554C157.416 88.2774 155.105 88.1276 152.485 88.1276C150.398 88.1276 148.418 88.2474 146.572 88.514C143.047 89.0231 140.01 90.0679 137.65 91.8383C133.94 94.4237 131.806 98.8093 131.806 105.667H131.807H147.316H147.316C147.316 101.592 147.685 97.7937 151.853 97.1171C152.284 97.0472 152.755 97.0106 153.272 97.0106C159.001 97.0106 159.676 100.494 159.676 105.328V109.714C159.489 109.712 159.301 109.709 159.114 109.706C150.454 109.589 141.937 109.907 136.469 114.104C132.765 116.946 130.458 121.568 130.458 129.051C130.458 137.696 133.546 145.05 141.667 146.772C141.667 146.769 141.668 146.766 141.668 146.763C141.668 146.766 141.668 146.769 141.668 146.772C142.844 147.019 144.125 147.154 145.517 147.154C148.73 147.154 151.449 146.536 153.779 145.277C156.42 143.851 158.56 141.601 160.351 138.495H160.576L161.249 146.028H161.25H175.971C175.636 142.542 175.186 138.947 175.186 135.459ZM151.808 137.371C146.641 137.371 145.966 132.425 145.966 128.376C145.966 122.369 148.026 120.166 151.346 119.297C153.618 118.703 156.48 118.733 159.676 118.596C159.676 123.718 160.678 133.232 155.725 136.352C154.697 136.999 153.412 137.371 151.808 137.371Z" fill="#FFCC00"/>
<path d="M136.469 114.104C136.469 114.104 136.469 114.104 136.469 114.104C134.198 111.692 130.958 110.183 126.314 110.183C120.611 110.183 116.696 111.86 113.453 116.67H113.23V87.0242H97.4611L97.4612 167.798H112.447V161.533H112.671C115.578 167.014 119.94 168.918 125.977 168.918C139.021 168.918 141.285 157.353 141.668 146.772M126.314 139.046C126.314 153.255 125.308 159.185 119.604 159.185C114.237 159.185 113.23 153.255 113.23 139.046C113.23 127.747 113.118 119.918 119.604 119.918C126.425 119.918 126.314 127.747 126.314 139.046Z" fill="#000099"/>
<path d="M159.476 88.5556L175.185 120.451V107.128C175.185 98.1323 173.224 90.4137 159.476 88.5556Z" fill="#999900"/>
<path d="M141.745 139.158C141.745 131.084 141.963 119.938 136.469 114.105C132.764 116.947 130.458 121.568 130.458 129.051C130.458 137.696 133.545 145.05 141.667 146.772C141.765 144.107 141.745 141.5 141.745 139.158Z" fill="#CC6600"/>
<path d="M102.552 104.945L101.597 104.821H101.061C98.7947 104.821 97.0455 105.304 95.8131 106.268C94.6204 107.205 94.0241 109.19 94.0241 112.221V115.941H102.432V123.217H94.0241V158.685H77.1481V123.217H69.4556V115.941H77.1481V108.749C77.1481 104.67 78.4799 101.721 81.1435 99.9022C83.8468 98.0558 89.1541 97.1326 97.0653 97.1326C97.7412 97.1326 98.4766 97.1463 99.2717 97.1739L102.79 97.2979L102.552 104.945Z" fill="#FF0000"/>
<path fill-rule="evenodd" clip-rule="evenodd" d="M97.4611 123.217H102.432V115.941H97.4611L97.4611 123.217ZM97.4611 105.371C98.4648 105.005 99.6647 104.821 101.061 104.821H101.597L102.552 104.945L102.79 97.2979L99.2717 97.1739C98.6292 97.1516 98.0257 97.1384 97.461 97.1341L97.4611 105.371Z" fill="#990033"/>
<path d="M54.0802 159.46C48.087 159.46 43.5097 158.46 40.3485 156.459C37.2202 154.458 35.656 151.119 35.656 146.441C35.656 145.877 35.6889 145.313 35.7548 144.75H49.6347V146.398C49.6347 148.568 50.1121 150.104 51.0671 151.006C52.055 151.908 53.471 152.359 55.315 152.359C56.9945 152.359 58.3116 151.964 59.2666 151.175C60.2545 150.358 60.7484 149.231 60.7484 147.793C60.7484 146.666 60.5015 145.722 60.0075 144.961C59.5136 144.2 58.9702 143.608 58.3775 143.186C57.7848 142.763 56.5828 142.157 54.7717 141.368L46.177 137.817C42.2255 136.155 39.5582 134.492 38.1751 132.829C36.7921 131.138 36.1006 129.137 36.1006 126.827C36.1006 122.938 37.7964 119.866 41.1882 117.611C44.6129 115.329 49.256 114.187 55.1175 114.187C58.9702 114.187 62.3126 114.695 65.1446 115.709C67.9765 116.724 70.0181 118.062 71.2695 119.725C72.5537 121.359 73.1959 123.727 73.1959 126.827V127.63H59.6618V126.827C59.6618 124.798 59.2501 123.304 58.4269 122.346C57.6366 121.359 56.3523 120.866 54.5741 120.866C52.9935 120.866 51.7751 121.261 50.9189 122.05C50.0627 122.839 49.6347 123.882 49.6347 125.178C49.6347 126.136 49.8981 126.996 50.425 127.757C50.9519 128.517 52.0056 129.222 53.5862 129.87L62.7736 133.675C67.0215 135.45 70.0675 137.352 71.9116 139.381C73.7886 141.41 74.7271 143.749 74.7271 146.398C74.7271 150.71 72.9983 153.965 69.5407 156.163C66.083 158.361 60.9296 159.46 54.0802 159.46Z" fill="#FF0000"/>
<defs>
<filter id="filter0_d_2131_269" x="0" y="0" width="266" height="268" filterUnits="userSpaceOnUse" color-interpolation-filters="sRGB">
<feFlood flood-opacity="0" result="BackgroundImageFix"/>
<feColorMatrix in="SourceAlpha" type="matrix" values="0 0 0 0 0 0 0 0 0 0 0 0 0 0 0 0 0 0 127 0" result="hardAlpha"/>
<feMorphology radius="2" operator="erode" in="SourceAlpha" result="effect1_dropShadow_2131_269"/>
<feOffset dy="10"/>
<feGaussianBlur stdDeviation="5"/>
<feComposite in2="hardAlpha" operator="out"/>
<feColorMatrix type="matrix" values="0 0 0 0 0 0 0 0 0 0 0 0 0 0 0 0 0 0 0.25 0"/>
<feBlend mode="normal" in2="BackgroundImageFix" result="effect1_dropShadow_2131_269"/>
<feBlend mode="normal" in="SourceGraphic" in2="effect1_dropShadow_2131_269" result="shape"/>
</filter>
<linearGradient id="paint0_linear_2131_269" x1="63.5555" y1="28.2258" x2="189.385" y2="221.963" gradientUnits="userSpaceOnUse">
<stop stop-color="#F8F8F8"/>
<stop offset="1" stop-color="#D3D3D3"/>
</linearGradient>
<linearGradient id="paint1_linear_2131_269" x1="8" y1="0" x2="254" y2="246.064" gradientUnits="userSpaceOnUse">
<stop stop-color="#E3E3E3"/>
<stop offset="1" stop-color="#B1B1B1"/>
</linearGradient>
</defs>
</svg>
