<svg width="266" height="268" viewBox="0 0 266 268" fill="none" xmlns="http://www.w3.org/2000/svg">
<g filter="url(#filter0_d_1960_1496)">
<rect x="8" width="250" height="250" rx="45" fill="url(#paint0_linear_1960_1496)"/>
<rect x="12" y="4" width="242" height="242" rx="41" stroke="url(#paint1_linear_1960_1496)" stroke-width="8"/>
</g>
<path d="M141.7 206.242C144.741 207.274 147.775 208.324 150.823 209.335C158.825 211.988 166.963 214.145 175.195 215.955C181.97 217.447 188.764 218.845 195.604 220.008C201.552 221.021 207.483 222.123 213.436 223.098C217.834 223.817 222.256 224.397 226.668 225.033C227.001 225.082 227.331 225.111 227.721 225.318C222.514 225.643 217.401 225.686 212.291 225.563C206.455 225.423 200.665 224.742 194.881 223.955C188.805 223.13 182.747 222.186 176.71 221.116C165.36 219.104 154.091 216.718 142.964 213.692C133.364 211.082 123.85 208.195 114.528 204.709C109.837 202.955 105.148 201.183 100.502 199.105C100.625 199.545 100.983 199.584 101.237 199.735C106.89 203.134 113.011 205.533 119.09 208.002C125.718 210.692 132.442 213.129 139.293 215.2C147.629 217.719 156.079 219.79 164.592 221.597C171.833 223.133 179.121 224.438 186.441 225.55C193.054 226.553 199.684 227.447 206.312 228.355C208.583 228.667 210.867 228.87 213.141 229.249C210.947 229.392 208.754 229.571 206.558 229.67C199.548 229.989 192.534 230.25 185.516 230.367C182.332 230.419 179.211 229.895 176.084 229.454C171.089 228.749 166.119 227.889 161.172 226.896C154.13 225.482 147.107 223.993 140.16 222.151C136.582 221.204 132.977 220.361 129.363 219.535C139.843 223.074 150.444 226.221 161.073 229.304C159.444 228.965 157.814 228.624 156.185 228.285C148.481 226.683 140.982 224.323 133.461 222.052C122.987 218.89 112.688 215.232 102.646 210.877C93.3894 206.861 84.3357 202.451 76.0894 196.558C73.9173 195.005 71.79 193.384 70.0915 191.287C69.8958 191.047 69.6664 190.819 69.5247 190.551C68.669 188.93 67.651 187.579 65.9618 186.594C64.502 185.742 63.8979 184.01 63.6798 182.282C63.2994 179.254 63.9911 176.446 65.3484 173.743C67.9046 168.642 71.3686 164.212 75.2728 160.099C75.6028 159.752 75.7855 159.413 75.7538 158.954C75.5375 155.755 76.7326 153.208 79.3092 151.318C79.7865 150.967 79.8835 150.659 79.615 150.096C78.9363 148.672 78.3304 147.21 77.7151 145.756C77.4616 145.156 77.2528 144.531 77.236 143.873C77.2248 143.437 77.2434 142.965 77.7916 142.825C78.3696 142.678 78.7294 142.954 78.9531 143.483C79.4528 144.663 79.6355 145.924 79.8816 147.164C80.0811 148.165 80.4316 149.104 80.7542 150.055C80.8567 150.04 80.9164 150.037 80.9742 150.022C82.7174 149.543 83.5657 148.252 84.2257 146.671C84.8242 145.238 85.8403 144.026 86.8452 142.846C87.3001 142.312 87.2256 142.005 86.7464 141.574C85.0013 140.008 84.0803 137.998 83.8621 135.699C83.6198 133.141 84.7216 131.118 86.6588 129.53C88.9632 127.639 91.7132 126.979 94.6068 126.798C95.2873 126.756 95.8038 126.61 96.0928 125.943C96.1748 125.754 96.337 125.518 96.5085 125.467C97.4519 125.197 97.4743 124.418 97.6179 123.661C97.9591 121.847 99.2231 120.836 100.849 120.264C101.548 120.018 101.889 119.63 102.113 118.96C102.749 117.053 103.817 115.386 105.107 113.858C105.223 113.721 105.348 113.46 105.532 113.572C106.371 114.078 106.286 113.399 106.427 112.935C106.683 112.101 107.033 111.311 107.678 110.69C108.577 109.825 109.146 108.809 109.19 107.53C109.2 107.291 109.259 107.013 109.394 106.825C110.956 104.655 111.799 102.024 113.859 100.158C115.992 98.2262 118.229 96.4942 120.903 95.3792C122.761 94.6055 124.762 94.7211 126.703 94.4657C127.001 94.4265 127.223 94.5048 127.273 94.0947C127.743 90.1607 130.381 88.2926 133.86 87.2858C136.034 86.6575 138.231 86.128 140.537 86.307C141.946 86.417 143.287 86.7992 144.586 87.2895C147.204 88.2795 149.941 88.7419 152.691 88.8034C154.969 88.8538 157.266 88.5331 159.56 88.4641C163.533 88.3448 167.454 87.6214 171.417 87.4032C171.691 87.3883 172.008 87.3902 172.228 87.256C175.264 85.3953 178.331 85.8185 181.414 87.0919C181.983 87.3268 182.615 87.8749 183.085 87.7556C183.601 87.6251 183.64 86.7265 183.935 86.1858C187.036 80.5049 191.753 77.4603 198.286 77.3447C202.622 77.2682 206.509 78.4671 209.688 81.4949C213.596 85.2163 215.418 89.8028 215.125 95.2096C214.84 100.462 213.037 105.181 210.084 109.487C209.808 109.888 209.714 110.226 209.819 110.751C210.25 112.897 210.343 115.062 209.765 117.204C209.636 117.681 209.765 118.051 210.005 118.427C210.656 119.451 211.189 120.534 211.709 121.628C212.793 123.912 212.595 126.092 211.661 128.439C208.931 135.304 205.607 141.897 202.673 148.663C201.684 150.939 201.205 153.394 200.601 155.798C200.353 156.786 200.625 157.789 200.78 158.755C201.41 162.715 199.141 166.002 195.672 167.396C195.069 167.639 194.752 167.779 195.041 168.595C195.465 169.787 195.329 171.062 194.758 172.22C192.877 176.038 189.965 178.387 185.568 178.616C183.448 178.726 181.353 178.665 179.302 178.048C177.773 177.587 176.66 176.702 176.248 175.098C176.132 174.651 175.961 174.431 175.431 174.535C173.116 174.994 170.933 174.416 168.811 173.562C167.961 173.219 167.168 173.01 166.221 173.208C164.661 173.534 163.072 173.502 161.517 173.07C161.098 172.952 160.833 173.021 160.633 173.454C160.488 173.769 160.152 173.967 159.781 173.871C159.468 173.789 159.231 173.586 159.287 173.193C159.299 173.114 159.248 173.016 159.202 172.943C158.801 172.311 155.652 171.787 155.033 172.212C151.056 174.943 146.799 177.171 142.409 179.144C138.141 181.061 133.791 182.785 129.375 184.331C128.312 184.702 127.406 185.373 126.358 185.765C125.493 186.089 124.622 186.341 123.785 185.748C123.373 185.455 123.14 185.759 122.905 185.947C121.965 186.702 121.05 187.487 120.015 188.354C121.965 188.541 123.819 188.716 125.95 188.919C123.06 189.449 120.455 190.008 117.811 190.36C121.753 191.104 125.715 191.589 129.598 192.516C130.769 192.795 131.86 192.27 132.988 192.147C136.493 191.761 139.985 191.293 143.509 191.071C149.77 190.675 156.03 190.357 162.308 190.347C169.363 190.336 176.412 190.541 183.447 190.976C189.318 191.337 195.172 191.982 200.849 193.681C201.636 193.916 202.382 193.565 203.148 193.521C204.188 193.457 205.225 193.319 206.258 193.155C201.895 191.872 197.422 191.462 192.936 191.065C187.992 190.627 183.029 190.476 178.088 190.008C176.544 189.863 174.99 189.848 173.438 189.788C172.859 189.766 172.286 189.74 171.607 189.432C187.334 189.27 202.824 190.189 218.117 193.343C218.117 193.429 218.117 193.513 218.117 193.599C216.404 193.763 214.689 193.899 212.979 194.093C204.634 195.044 196.294 196.032 188.376 199.08C187.25 199.513 186.126 199.962 185.249 200.861C184.731 201.392 184.739 201.691 185.49 201.968C188.169 202.958 190.949 203.598 193.703 204.321C200.376 206.074 207.073 207.735 213.803 209.258C218.695 210.364 223.621 211.311 228.56 212.189C228.674 212.21 228.782 212.262 229 212.336C228.692 212.594 228.411 212.508 228.174 212.508C220.688 212.525 213.221 212.169 205.766 211.494C200.206 210.992 194.655 210.405 189.114 209.732C185.084 209.241 181.058 208.716 177.031 208.205C173.58 207.767 170.11 207.543 166.643 207.317C160.322 206.903 153.998 206.581 147.666 206.366C145.685 206.299 143.706 206.13 141.726 206.009C141.715 206.079 141.708 206.16 141.7 206.242ZM182.091 167.16C182.514 167.383 182.58 167.094 182.554 166.796C182.514 166.335 182.457 165.871 182.35 165.424C181.59 162.208 180.579 159.062 179.563 155.921C179.382 155.36 179.311 154.731 178.832 154.261C178.679 154.56 178.767 154.785 178.84 155.028C179.336 156.681 179.841 158.335 180.298 160C180.95 162.375 181.785 164.704 182.123 167.163C181.962 167.253 181.78 167.316 181.649 167.435C181.342 167.715 181.228 168.06 181.521 168.414C181.754 168.696 182.082 168.686 182.356 168.504C182.686 168.284 182.732 167.944 182.527 167.609C182.419 167.432 182.347 167.201 182.091 167.16ZM185.82 160.753L185.798 160.725C185.574 161.309 184.959 161.546 184.619 162.07C185.287 161.742 185.992 161.171 186.528 162.126C187.136 163.205 186.055 163.311 185.305 163.736C186.062 163.917 186.508 163.272 187.062 163.507C187.692 163.774 187.906 164.169 187.282 164.825C187.966 164.736 188.4 164.454 188.818 164.139C189.741 163.446 190.487 162.562 191.346 161.803C191.866 161.344 192.053 160.847 191.98 160.179C191.663 157.306 190.302 154.981 188.244 153.027C187.837 152.641 187.334 152.363 186.754 152.321C186.336 152.289 185.883 152.16 185.574 152.626C184.714 153.918 183.784 155.158 182.746 156.392C183.547 155.867 183.706 156.398 183.874 156.956C184.017 157.437 183.875 157.914 183.814 158.559C184.795 157.213 185.704 156.04 186.428 154.735C186.556 154.502 186.605 154.028 187.056 154.271C187.412 154.463 187.582 154.815 187.408 155.222C187.263 155.563 187.069 155.882 186.888 156.208C186.044 157.742 184.336 158.665 183.885 160.63C184.636 159.72 185.259 160.036 185.82 160.753ZM185.212 99.4847C184.843 98.985 184.86 98.3716 184.774 97.8067C184.19 93.9436 184.263 90.1458 186.008 86.5326C187.09 84.2934 188.63 82.47 190.772 81.1052C191.37 85.0951 195.403 91.5162 198.177 92.8119C195.852 89.566 193.636 86.3983 192.388 82.6881C193.296 84.1274 194.104 85.6264 195.185 86.9502C196.27 88.2795 197.422 89.5417 198.824 90.72C198.815 89.4373 198.573 88.3354 198.231 87.2448C199.74 89.4131 200.939 91.7399 201.964 94.3538C202.624 89.2658 201.658 85.0037 198.763 79.9623C201.692 79.4794 204.369 80.0649 206.854 81.5974C207.231 81.8305 207.427 82.2313 207.652 82.6061C208.393 83.8366 208.667 85.2256 209.053 86.7283C209.189 85.261 208.594 84.0566 208.417 82.7907C208.737 82.7403 208.765 83.1859 209.191 83.033C208.607 82.2984 207.997 81.6739 207.265 81.1612C205.107 79.6528 202.706 78.8399 200.098 78.6069C195.013 78.1538 190.658 79.7032 187.272 83.5495C183.644 87.6699 182.818 92.4819 184.207 97.721C184.593 99.1789 184.934 100.659 185.73 101.974C185.598 101.118 185.212 100.326 185.192 99.4567C185.852 101.209 186.51 102.962 187.213 104.83C188.574 101.344 190.36 98.202 192.325 95.1574C192.455 94.9542 192.618 94.7565 192.416 94.4862C191.249 92.9275 190.235 91.2719 189.295 89.3516C188.516 90.9121 187.796 92.2992 187.123 93.7106C186.247 95.5526 185.33 97.3872 185.212 99.4847ZM148.257 135.873C147.005 134.739 145.724 133.639 144.622 132.345C141.339 128.491 138.404 124.371 135.423 120.29C134.215 118.638 132.993 116.967 132.365 114.995C132.175 114.394 132.084 114.348 131.548 114.575C127.234 116.401 123.021 118.429 118.952 120.75C118.251 121.149 117.549 121.543 116.859 121.958C116.171 122.374 115.498 122.814 114.819 123.245C115.102 123.323 115.3 123.254 115.485 123.159C119.061 121.282 122.789 119.779 126.61 118.478C127.201 118.276 127.57 118.355 127.997 118.796C129.878 120.735 131.796 122.637 133.687 124.567C134.356 125.249 134.985 125.971 135.633 126.675C135.283 126.593 135.046 126.405 134.809 126.217C132.438 124.319 130.148 122.318 127.691 120.525C127.107 120.098 126.621 120.064 125.985 120.286C122.04 121.671 118.158 123.217 114.368 124.983C113.122 125.562 111.911 126.211 110.682 126.828C118.082 126.664 125.355 127.211 132.744 129.023C132.138 129.217 131.754 129.314 131.39 129.459C125.933 131.629 120.912 134.536 116.393 138.304C115.813 138.787 116.031 139.16 116.288 139.665C120.867 135.653 125.998 132.718 131.627 130.598C136.12 128.905 140.19 129.427 143.854 132.606C145.446 133.988 147.01 135.407 148.638 136.747C151.427 139.042 154.073 141.462 155.952 144.594C156.508 145.519 157.002 146.481 157.524 147.425C157.462 146.809 157.263 146.265 157.03 145.734C156.893 145.42 156.871 145.18 157.125 144.893C158.767 143.039 162.142 141.895 164.668 142.378C164.045 142.51 163.434 142.303 162.94 142.475C167.976 143.703 172.096 146.793 176.584 149.546C172.687 150.344 169.148 151.759 165.194 152.032C167.866 153.508 173.729 154.431 176.679 153.909C180.892 153.163 182.43 151.666 183.199 147.451C183.704 144.676 184.103 141.884 184.614 139.111C185.27 135.561 186.719 132.293 188.546 129.222C190.007 126.767 189.139 124.537 188.391 122.16C185.73 124.541 182.928 126.571 179.893 128.283C179.222 128.661 179.035 128.361 178.877 127.824C178.711 127.265 179.248 127.252 179.513 127.099C182.25 125.516 184.996 123.953 187.511 122.018C188.115 121.554 188.408 121.121 187.901 120.355C185.041 122.706 181.795 124.461 178.577 126.409C177.585 123.161 176.326 120.088 173.972 117.581C171.619 115.077 168.647 113.583 165.358 112.345C166.892 111.835 168.244 111.387 169.594 110.934C172.42 109.985 175.228 108.997 177.682 107.237C179.762 105.744 180.376 103.888 179.487 101.446C186.497 105.648 186.543 111.635 184.108 118.412C185.296 117.646 186.238 116.865 186.998 115.86C187.787 114.818 188.072 113.652 188.037 112.355C188.738 113.665 189.439 114.976 190.14 116.287C188.98 112.879 188.085 109.389 186.184 106.29C184.996 104.353 183.564 102.68 181.677 101.42C176.606 98.0305 171.037 98.1852 165.356 99.1622C165.045 99.2162 164.963 99.3225 164.985 99.645C165.14 101.812 165.308 103.976 165.393 106.146C165.459 107.778 165.406 109.415 165.406 111.311C165.261 110.951 165.188 110.845 165.177 110.733C164.968 108.667 164.752 106.599 164.569 104.532C164.394 102.555 164.215 100.579 163.881 98.6215C163.833 98.3344 163.872 97.9652 163.432 97.913C161.555 97.693 159.694 97.2921 157.792 97.3574C156.888 97.3891 156.284 97.8216 156.142 98.7949C156.04 99.4996 155.866 100.193 155.724 100.892C155.406 102.468 154.483 103.456 152.932 103.928C151.475 104.369 150.003 104.716 148.504 104.968C146.125 105.367 143.703 105.566 141.389 106.277C138.346 107.209 137.276 108.527 137.42 111.702C137.619 116.078 138.81 120.264 140.298 124.647C140.809 121.315 141.851 118.401 142.78 115.329C143.898 116.815 144.803 118.254 145.722 119.689C146.643 121.127 147.433 122.635 148.248 124.131C149.039 125.585 149.635 127.127 150.349 128.909C150.174 127.114 149.632 125.706 149.145 124.282C150.004 125.557 150.497 126.972 150.769 128.465C151.235 131.014 150.817 133.29 148.643 134.974C148.321 135.224 148.377 135.572 148.269 135.882L148.257 135.873ZM84.8111 179.565C84.3301 176.577 84.8801 173.896 85.2772 171.19C85.4954 172.962 85.6613 174.735 86.1647 176.452C86.6718 178.178 87.4232 179.778 88.4225 181.286C87.9602 177.114 88.4971 173.018 89.1925 168.912C89.7891 173.346 89.8003 177.953 92.8151 181.691C92.2968 179.545 92.0768 177.39 92.3005 175.19C92.569 176.935 93.1395 178.566 94.0288 180.186C94.3327 179.754 94.5453 179.375 94.8287 179.062C95.636 178.171 95.8504 177.207 95.6173 175.999C95.3656 174.694 95.4645 173.331 95.6248 172.007C95.7348 171.09 95.7329 170.126 96.2475 169.182C96.0275 171.647 96.0368 173.991 96.7472 176.517C97.1574 175.549 98.0541 175.068 97.9124 174.127C97.8043 173.413 97.8304 172.704 97.7968 171.992C97.726 170.501 98.1865 168.949 97.8863 167.551C97.5806 166.121 96.5589 164.848 95.8765 163.492C94.6628 161.078 93.6988 158.559 92.8226 155.841C91.6424 157.974 90.7456 160.078 89.4275 162.178C89.2298 161.346 89.0919 160.694 88.9185 160.05C88.3498 157.953 88.4915 156.014 90.1173 154.381C90.4678 154.03 90.7792 153.639 91.139 153.298C91.3944 153.055 91.6629 152.63 92.0432 152.813C92.377 152.973 92.1737 153.436 92.211 153.762C92.2371 153.986 92.2166 154.215 92.2166 154.5C92.3919 154.409 92.4665 154.396 92.4907 154.353C93.4322 152.716 94.1053 150.939 95.1083 149.334C95.1829 149.214 95.2109 149.022 95.1755 148.884C94.9387 147.956 95.0673 146.994 94.9294 145.885C94.4782 146.453 94.1034 146.895 93.7622 147.361C91.84 149.99 90.0464 152.71 88.1783 155.376C87.2573 156.693 87.0279 157.91 87.4866 159.433C88.1335 161.585 88.6108 163.789 89.1608 165.968C87.5985 163.722 87.054 161.063 86.1349 158.447C84.112 162.571 82.7193 166.738 82.3706 171.209C82.1338 174.201 82.572 177.011 84.8111 179.565ZM126.056 170.853C126.35 170.601 126.658 170.363 126.94 170.096C130.95 166.276 134.56 162.103 137.778 157.597C139.655 154.968 141.294 152.196 142.614 149.241C142.862 148.687 142.851 148.342 142.351 147.909C141.029 146.763 139.497 146.075 137.791 146.039C135.95 146 134.308 146.63 133.31 148.349C132.173 150.313 130.844 152.149 129.539 153.997C124.693 160.86 119.232 167.21 113.249 173.098C109.332 176.951 105.299 180.684 100.674 183.706C99.1933 184.674 97.7036 185.621 96.0834 186.344C95.5595 186.577 95.0151 186.839 94.5155 186.402C94.0512 185.996 94.2078 185.407 94.3589 184.92C94.6329 184.034 95.0282 183.192 95.4626 182.366C96.9373 179.56 98.7347 176.957 100.452 174.302C100.648 174.002 100.963 173.735 100.91 173.187C100.592 173.521 100.347 173.76 100.122 174.015C97.905 176.504 96.0667 179.267 94.2694 182.06C93.2924 183.579 92.4646 185.174 91.95 186.906C91.4914 188.453 92.3882 189.322 93.945 188.927C94.6404 188.75 95.2948 188.483 95.9399 188.177C98.7608 186.835 101.242 184.968 103.715 183.098C107.799 180.007 111.664 176.648 115.485 173.239C121.253 168.09 126.945 162.866 131.841 156.842C132.982 155.438 134.064 153.991 135.3 152.645C133.064 156.357 130.827 160.069 128.444 164.025C129.703 163.255 130.704 162.608 131.599 161.82C132.507 161.02 133.405 160.207 134.263 159.357C135.091 158.535 135.865 157.657 136.661 156.803C133.586 161.848 130.057 166.524 126.056 170.853ZM148.274 159.051C149.316 157.148 149.686 155.11 149.639 152.969C149.529 148.098 147.198 144.725 142.742 142.909C137.416 140.737 131.767 140.797 126.177 140.413C125.841 140.39 125.586 140.5 125.364 140.763C124.488 141.809 123.591 142.838 122.717 143.886C122.581 144.05 122.247 144.255 122.54 144.496C122.844 144.745 122.946 144.346 123.091 144.197C124.014 143.233 124.937 142.268 125.828 141.274C126.086 140.987 126.334 140.873 126.604 141.142C126.919 141.455 126.49 141.542 126.356 141.688C125.495 142.624 124.555 143.494 123.768 144.488C123.261 145.128 122.965 145.156 122.269 144.712C119.45 142.916 115.731 144.264 114.873 147.318C114.487 148.698 114.907 150.542 115.856 151.338C115.684 150.723 115.514 150.201 115.395 149.666C115.002 147.907 115.371 146.358 116.885 145.288C118.313 144.279 119.887 144.214 121.458 144.993C121.645 145.087 122.301 145.103 121.805 145.642C119.872 147.743 117.929 149.835 116.014 151.953C113.665 154.552 111.34 157.172 108.978 159.812C109.632 160.196 110.249 160.448 110.727 160.865C111.407 161.46 111.843 161.378 112.464 160.738C118.382 154.66 125.176 149.645 132.033 144.71C133.359 143.755 134.765 143.252 136.472 143.539C142.265 144.512 146.287 147.622 148.297 153.178C148.99 155.106 149.07 157.09 148.274 159.051ZM158.232 148.515C158.297 148.715 158.338 148.924 158.428 149.112C159.548 151.465 159.56 153.896 158.969 156.376C157.969 160.578 155.564 163.975 152.799 167.169C152.551 167.454 152.301 167.422 151.97 167.32C149.591 166.58 147.458 165.442 145.767 163.572C145.569 163.352 145.422 163.076 144.9 163.116C146.71 165.744 149.259 166.979 152.15 167.737C148.925 171.487 145.448 174.852 141.322 177.513C146.676 175.277 151.8 172.647 156.552 169.263C154.675 168.323 153.183 168.534 151.8 170.021C150.968 170.914 149.848 171.537 148.858 172.283C152.7 168.698 156.295 164.937 159.051 160.433C158.232 162.459 157.039 164.249 155.801 166.02C155.424 166.557 154.49 167.033 154.77 167.611C154.999 168.086 156.012 167.838 156.673 167.952C157.622 168.114 158.452 167.926 159.228 167.232C160.639 165.974 162.151 164.829 163.607 163.621C164.806 162.625 165.984 161.604 167.237 160.539C165.188 159.592 163.359 158.533 161.681 157.222C163.451 158.046 165.237 158.811 167.038 159.54C167.431 159.698 167.854 159.968 168.274 159.676C168.969 159.191 169.724 158.777 170.323 158.126C165.677 155.645 161.719 152.41 158.232 148.515ZM73.8036 188.794C74.3629 189.997 75.0602 190.849 75.8451 191.624C78.3807 194.128 81.3787 196.004 84.4177 197.809C89.2708 200.691 94.3272 203.18 99.4618 205.516C106.258 208.608 113.111 211.561 120.222 213.86C129.086 216.725 138.145 218.899 147.143 221.282C154.934 223.344 162.811 225.05 170.707 226.661C171.967 226.918 173.244 227.08 174.516 227.285C174.242 227.067 173.949 226.97 173.651 226.914C168.127 225.874 162.64 224.647 157.164 223.383C152.465 222.3 147.804 221.069 143.14 219.854C133.102 217.238 123.323 213.932 113.935 209.497C107.572 206.49 101.36 203.18 95.0655 200.037C90.8686 197.941 86.7986 195.644 83.0754 192.775C82.3986 192.253 81.7572 191.688 81.1009 191.142C82.1693 192.756 83.5247 194.063 85.0461 195.197C86.5376 196.306 88.0441 197.4 89.6437 198.355C91.2266 199.3 92.8002 200.259 94.3794 201.211C87.1808 197.757 80.096 194.125 73.8036 188.794ZM127.48 194.16C125.965 194.55 124.449 194.893 123.121 195.726C120.966 197.078 120.77 198.646 122.439 200.551C123.733 202.028 125.362 203.038 127.048 203.965C131.893 206.629 137.008 208.676 142.209 210.524C150.745 213.554 159.479 215.862 168.335 217.719C171.872 218.461 175.428 219.11 178.974 219.802C176.682 219.02 174.367 218.355 172.031 217.762C165.069 215.992 158.131 214.139 151.293 211.941C144.247 209.676 137.187 207.439 130.54 204.114C128.347 203.018 126.147 201.909 124.667 199.826C123.606 198.331 123.82 196.811 125.243 195.65C125.944 195.076 126.744 194.667 127.48 194.16ZM101.255 158.568C102.719 155.632 104.302 152.969 105.993 150.37C106.217 150.027 106.142 149.757 106.021 149.421C105.385 147.641 104.768 145.853 104.339 144.009C104.028 142.67 103.772 141.32 103.491 139.959C103.377 140.012 103.297 140.021 103.273 140.064C101.496 143.12 99.7247 146.177 97.9479 149.231C97.7875 149.505 97.8416 149.744 97.9199 150.025C98.7346 152.923 99.8813 155.69 101.255 158.568ZM115.457 137.882C119.519 134.088 124.197 131.378 129.3 129.271C128.826 128.857 128.293 129.015 127.827 128.939C123.326 128.208 118.8 127.787 114.23 127.884C113.437 127.9 113.242 128.12 113.346 128.905C113.751 131.942 114.56 134.877 115.457 137.882ZM123.388 154.964C122.603 155.479 121.557 155.619 121.113 156.519C119.553 159.698 117.31 162.394 115.088 165.101C112.209 168.606 109.131 171.923 105.62 174.811C104.788 175.495 103.91 176.14 102.829 176.439C102.264 176.595 102.07 176.37 102.053 175.87C102.027 175.067 102.318 174.345 102.723 173.679C103.446 172.488 104.212 171.323 104.949 170.139C105.133 169.842 105.417 169.574 105.385 169.044C104.402 170.066 103.627 171.108 102.82 172.126C100.478 175.078 98.9845 178.564 96.7901 181.609C96.1897 182.442 95.7646 183.378 95.4514 184.357C95.3358 184.721 95.2892 185.12 95.7572 185.297C96.708 185.655 98.0057 184.765 97.9889 183.762C97.9814 183.283 98.097 182.843 98.2685 182.407C98.716 181.273 99.253 180.175 99.5531 178.974C100.342 179.608 101.125 179.442 101.88 179.099C102.844 178.661 103.703 178.04 104.533 177.386C110.846 172.412 116.206 166.542 120.776 159.95C121.842 158.414 122.87 156.825 123.388 154.964ZM101.882 122.663C101.733 122.441 101.833 122.35 101.859 122.242C101.919 121.977 102.051 121.658 101.796 121.461C101.578 121.293 101.306 121.489 101.099 121.589C99.9036 122.173 98.9602 122.965 98.8838 124.436C98.8577 124.93 98.7719 125.423 98.7235 125.917C98.6955 126.204 98.6321 126.355 98.2648 126.297C97.4296 126.165 96.9896 126.618 96.8777 127.408C96.8087 127.893 96.6148 128.064 96.0853 128.046C93.201 127.943 90.4827 128.555 88.0702 130.192C86.7017 131.12 85.652 132.317 85.5159 134.195C85.7098 134.021 85.8403 133.904 86.0808 133.689C86.0808 134.128 86.0566 134.433 86.0883 134.733C86.1162 134.998 86.2095 135.257 86.2728 135.518C86.2579 134.351 86.931 133.753 87.8408 133.35C88.5176 133.052 89.2168 132.798 89.9178 132.56C91.7337 131.944 93.656 131.89 95.6751 131.523C94.5061 130.235 93.1619 129.77 91.5827 129.839C93.9785 128.872 96.0368 129.593 97.9665 131.236C97.864 130.466 97.7652 129.796 97.6906 129.125C97.6496 128.756 97.6645 128.299 97.9833 128.13C98.3469 127.936 98.5538 128.391 98.798 128.605C99.3518 129.092 99.6333 129.858 100.504 130.292C100.303 129.726 100.202 129.302 100.01 128.928C99.3164 127.578 99.8347 126.196 99.8589 124.83C99.8626 124.656 99.9447 124.502 100.116 124.502C100.275 124.502 100.368 124.641 100.409 124.813C100.448 124.977 100.37 125.204 100.536 125.257C101 124.843 101.455 124.479 101.859 124.065C102.859 123.045 103.864 122.031 104.807 120.961C105.366 120.325 105.974 119.656 105.678 118.468C106.994 120.568 108.342 122.369 110.438 123.444C108.018 121.332 106.136 118.882 105.501 115.61C103.61 117.637 103.31 120.415 101.882 122.663ZM109.897 127.973C107.32 128.486 107.005 128.849 106.951 131.32C106.947 131.474 106.947 131.629 106.947 131.786C106.962 136.766 107.941 141.576 109.513 146.388C110.481 145.282 111.374 144.222 112.315 143.205C112.684 142.806 112.709 142.456 112.544 141.967C111.56 139.029 110.771 136.04 110.38 132.96C110.171 131.305 110.055 129.638 109.897 127.973ZM153.772 192.063C154.33 192.063 154.887 192.037 155.441 192.066C158.57 192.232 161.711 192.243 164.819 192.667C170.342 193.418 175.821 194.393 181.204 195.872C182.061 196.107 182.962 196.683 183.797 196.457C186.18 195.812 188.576 195.247 191.121 194.783C183.098 191.93 165.237 191.328 153.772 192.063ZM102.264 197.777C103.373 197.822 104.143 197.512 104.925 197.287C109.026 196.108 112.324 193.537 115.535 190.912C121.186 186.289 126.373 181.158 131.282 175.753C135.082 171.567 138.534 167.1 141.695 162.415C143.375 159.924 145.015 157.397 146.199 154.616C146.458 154.006 146.665 153.389 146.279 152.632C146.052 153.031 145.869 153.314 145.722 153.616C143.186 158.831 139.869 163.543 136.362 168.129C131.731 174.187 126.531 179.728 120.919 184.877C115.362 189.973 109.798 195.077 102.264 197.777ZM132.544 101.373C132.872 100.723 132.883 99.8967 133.715 99.9694C134.828 100.066 134.99 100.978 135.016 102.106C135.412 101.375 135.46 100.643 136.273 100.613C137.483 100.57 137.597 101.593 137.951 102.429C138.223 101.746 138.477 101.151 139.239 101.034C139.929 100.928 140.345 101.278 140.604 101.882C140.876 101.629 140.826 101.334 140.88 101.064C141.057 100.186 141.169 99.2945 141.559 98.4686C141.71 98.1498 141.816 97.8272 142.263 97.8645C142.694 97.8999 142.907 98.1721 143.063 98.5376C143.177 98.8061 143.015 99.1733 143.41 99.3989C143.458 99.0932 143.501 98.8228 143.544 98.5394C143.969 98.8023 143.733 99.3672 144.176 99.6022C144.407 98.5711 143.9 97.7974 143.218 97.2399C140.004 94.613 136.325 93.7367 132.263 94.5831C131.394 94.764 130.821 95.3401 130.575 96.2537C130.178 97.7321 130.143 99.2554 129.939 100.756C129.912 100.958 129.953 101.174 130.186 101.293C130.273 100.585 130.195 99.7084 131.148 99.6133C132.266 99.5033 132.345 100.462 132.544 101.373ZM165.733 196.217C160.691 194.747 155.56 193.724 150.323 193.232C145.123 192.743 140 193.217 134.921 194.382C145.19 194.951 155.456 195.519 165.733 196.217ZM171.415 88.7102C169.05 88.9209 166.84 89.111 164.648 89.4802C164.277 89.5417 164.131 89.799 164.008 90.0806C163.259 91.7865 163.136 93.5521 163.656 95.3326C163.878 96.0933 164.275 96.7962 164.963 97.376C165.076 95.5992 165.088 93.8933 165.423 92.2116C165.483 92.3589 165.5 92.5062 165.513 92.6553C165.658 94.2363 166.037 95.7521 166.725 97.1933C167.069 97.9167 167.67 97.6613 168.175 97.6333C168.699 97.6054 168.458 97.1076 168.501 96.8148C168.604 96.1101 168.632 95.3942 168.742 94.6913C169.085 92.5136 170.069 90.6082 171.415 88.7102ZM140.548 89.9538C141.456 91.0016 142.575 91.8331 143.298 93.0524C144.486 91.3334 144.361 90.7089 142.679 89.7561C142.032 89.3907 141.391 88.9992 140.708 88.7139C140.041 88.4343 139.321 88.2739 138.626 88.0614C141.766 88.2982 144.896 88.5629 147.072 91.5777C146.876 90.4273 146.544 89.6107 145.55 89.0943C141.249 86.8626 136.981 87.4834 132.719 89.1838C132.332 89.3385 132 89.635 131.64 89.8661C133.495 89.4578 135.311 89.2527 137.121 90.0004C135.173 89.7039 133.29 89.6928 131.662 91.0221C135.878 89.9985 139.228 91.505 142.118 94.6577C142.437 92.7001 141.333 91.3856 140.548 89.9538ZM188.626 146.433C189.789 142.212 190.964 138.211 192.586 134.224C190.526 135.144 188.676 136.076 186.903 137.157C186.322 137.511 185.317 140.672 185.591 141.291C185.628 141.375 185.689 141.447 185.745 141.522C186.83 142.993 187.684 144.602 188.626 146.433ZM201.558 115.687C207.367 112.804 210.162 107.494 212.8 101.741C209.524 103.137 206.509 102.36 203.493 101.877C205.958 102.837 208.488 103.219 211.178 102.869C210.011 102.96 209.466 103.668 208.967 104.606C207.417 107.507 205.659 110.282 203.512 112.791C203.086 113.289 202.682 113.803 202.242 114.342C202.742 114.488 203.051 114.044 203.485 114.182C202.93 114.859 202.009 114.974 201.558 115.687ZM96.9429 140.545C99.1001 137.942 101.246 135.545 103.48 133.227C103.83 132.863 104.542 132.423 104.361 132.054C104.097 131.517 103.291 131.571 102.676 131.515C102.555 131.504 102.43 131.542 102.307 131.553C101.078 131.659 100.043 132.23 99.1597 133.024C97.3326 134.664 95.8411 136.555 94.9741 139.05C95.649 138.671 96.0201 137.739 96.7416 138.25C97.4575 138.757 96.997 139.613 96.9429 140.545ZM206.403 136.978C204.576 137.094 202.874 136.939 201.188 136.339C200.791 137.577 200.424 138.82 199.991 140.038C199.745 140.729 199.837 141.244 200.377 141.775C201.269 142.648 202.083 143.597 202.973 144.559C204.116 142.033 205.245 139.54 206.403 136.978ZM113.454 104.397C113.57 104.362 113.715 104.312 113.863 104.274C115.147 103.954 116.275 103.303 117.366 102.589C119.409 101.25 121.195 99.6339 122.51 97.5513C122.698 97.253 122.972 96.8745 122.67 96.5277C122.383 96.1977 122.019 96.4923 121.721 96.593C119.1 97.4637 116.963 99.0988 115.009 100.982C114.232 101.729 113.486 102.533 112.955 103.497C112.658 104.028 112.839 104.308 113.454 104.397ZM199.289 133.671C199.249 134.226 199.268 134.689 199.091 135.136C197.402 139.432 196.496 143.927 195.742 148.457C195.476 150.068 194.915 151.642 195.153 153.329C195.362 154.8 195.314 154.798 193.835 155.19C193.636 155.242 193.265 155.166 193.296 155.546C193.315 155.773 193.526 155.91 193.733 155.992C194.963 156.48 196.113 155.714 196.059 154.407C196.013 153.268 195.797 152.143 196.1 150.995C196.457 149.653 196.734 148.288 197.001 146.923C197.747 143.123 198.576 139.354 200.029 135.742C200.31 135.041 200.642 135.05 201.185 135.241C202.697 135.765 204.255 135.968 205.849 135.914C206.323 135.897 206.826 135.91 207.227 135.328C204.392 135.545 201.837 134.894 199.289 133.671ZM209.36 130.201C208.92 130.414 208.493 130.66 208.038 130.831C206.118 131.555 204.235 131.652 202.458 130.404C201.423 129.677 201.384 129.105 202.417 128.434C204.27 127.227 206.245 126.265 208.398 125.715C209.711 125.38 210.276 125.648 210.988 126.955C211.948 122.574 208.887 119.779 207.438 116.421C207.345 116.455 207.253 116.488 207.16 116.522C207.938 118.481 208.717 120.443 209.498 122.41C208.053 122.165 206.746 122.559 205.477 123.161C206.179 123.118 206.875 123.01 207.576 122.947C208.89 122.827 209.77 123.269 210.143 124.173C210.302 124.559 210.285 124.722 209.798 124.729C206.765 124.768 204.172 126.06 201.724 127.688C200.37 128.588 200.422 129.718 201.71 130.749C202.771 131.598 203.976 132.092 205.294 132.103C206.903 132.116 208.413 131.709 209.36 130.201ZM79.1452 164.074C78.3733 164.764 77.594 165.448 76.8295 166.143C74.9521 167.853 73.1883 169.701 70.9753 171.006C70.6583 171.192 70.278 171.524 69.9685 171.237C69.6608 170.952 69.7932 170.488 70.002 170.115C70.0934 169.952 70.1847 169.79 70.278 169.63C71.7807 167.016 73.5743 164.609 75.4517 162.256C75.7482 161.885 76.1397 161.54 75.985 160.884C75.7631 161.137 75.5972 161.343 75.4144 161.531C72.4743 164.547 70.0244 167.931 67.8803 171.547C67.6286 171.972 67.3974 172.417 67.2129 172.876C66.8996 173.657 67.2744 174.116 68.0854 173.922C68.4974 173.823 68.8946 173.609 69.2581 173.383C73.179 170.959 76.3038 167.67 79.1452 164.074ZM195.191 163.986C196.238 162.946 196.367 161.607 196.915 160.231C197.012 161.538 196.757 162.605 196.706 163.8C198.269 162.525 198.103 160.815 198.302 159.185C198.451 159.601 198.601 160.015 198.748 160.431C198.608 158.697 199.059 156.862 197.81 155.214C197.732 156.255 197.322 156.922 196.361 157.198C195.485 157.448 194.575 157.235 193.688 157.422C193.869 159.06 194.046 160.666 194.245 162.472C194.786 161.359 194.825 160.326 195.03 159.144C195.332 160.832 195.453 162.333 195.191 163.986ZM94.715 151.536C94.3234 152.263 94.0177 152.831 93.7119 153.4C93.5758 153.652 93.5404 153.876 93.641 154.185C94.549 156.956 95.6006 159.666 96.859 162.295C97.3438 163.308 97.8919 164.288 98.4102 165.284C98.6936 164.337 99.6147 163.598 99.0702 162.553C97.2599 159.077 95.9361 155.406 94.715 151.536ZM159.453 94.3575C159.351 93.0357 159.341 91.7995 159.479 90.569C159.543 90.0097 159.396 89.7897 158.801 89.8195C157.194 89.8978 155.583 89.95 153.972 89.9687C153.344 89.9761 153.213 90.1831 153.364 90.7778C153.5 91.3111 153.53 91.8797 153.545 92.4335C153.558 92.9145 153.72 93.1289 154.224 93.2277C155.948 93.5652 157.658 93.966 159.453 94.3575ZM109.733 109.778C108.67 112.219 109.906 113.272 111.592 113.597C113.831 114.027 115.843 113.459 117.722 112.347C119.937 111.039 121.704 109.206 123.3 107.209C123.865 106.502 124.466 105.807 124.771 104.927C123.992 105.721 123.287 106.575 122.532 107.379C120.623 109.409 118.567 111.255 115.703 111.779C113.411 112.198 111.23 112.111 109.733 109.778ZM133.273 179.23C133.693 179.092 133.909 178.739 134.172 178.458C135.249 177.302 136.329 176.148 137.367 174.957C139.869 172.085 142.407 169.242 144.788 166.266C145.252 165.687 144.81 165.534 144.57 165.247C144.169 164.771 144.01 165.25 143.818 165.476C140.446 169.443 137.159 173.486 133.633 177.321C133.501 177.464 133.141 177.632 133.32 177.796C133.886 178.32 133.277 178.741 133.273 179.23ZM177.728 94.7919C177.083 95.1238 176.517 95.6067 175.788 95.7726C174.49 96.0691 173.556 95.3065 173.906 94.0928C174.436 92.2526 175.375 90.5933 176.837 89.3255C177.932 88.3765 179.332 88.7288 180.007 90.0321C180.219 90.4441 180.355 90.8897 180.393 91.3633C180.601 94.0555 179.076 96.7179 176.653 97.8832C176.513 97.9503 176.323 97.9801 176.343 98.2411C176.964 98.1852 177.482 97.9205 177.937 97.5513C180.083 95.8062 181.036 93.5148 180.972 90.7797C180.907 88.0166 177.644 86.1914 175.124 87.5505C175.282 87.5822 175.398 87.6121 175.515 87.6251C175.789 87.6568 176.144 87.6009 176.263 87.8936C176.397 88.2199 176.017 88.3504 175.849 88.548C175.243 89.2565 174.66 89.9836 174.205 90.7984C173.567 91.9412 173.002 93.1084 173.123 94.488C173.22 95.5899 173.977 96.3916 175.057 96.3189C176.162 96.2425 177.087 95.7409 177.728 94.7919ZM212.051 93.9194C212.023 94.7304 211.566 95.273 211.29 96.125C212.308 95.1499 213.039 94.2979 213.412 93.1643C214.293 90.4777 212.694 88.3858 211.818 86.1056C211.913 88.1117 211.499 90.0078 210.889 91.8685C210.289 93.7013 209.606 95.506 208.81 97.2772C210.007 96.3096 211.126 95.2953 212.051 93.9194ZM88.568 142.648C84.7011 145.918 80.7877 155.77 82.8143 164.216C83.0288 164.081 83.0474 163.86 83.0623 163.645C83.135 162.532 83.2413 161.417 83.2618 160.302C83.3699 154.179 84.4961 148.372 88.3554 143.379C88.5046 143.179 88.7805 142.976 88.568 142.648ZM112.585 109.027C113.993 108.932 115.287 108.643 116.501 108.052C120.422 106.143 123.339 103.18 125.469 99.4194C125.983 98.5115 126.378 97.5233 126.515 96.4606C126.589 95.8752 126.177 95.7708 125.767 95.754C125.172 95.7298 125.457 96.1604 125.506 96.4084C125.61 96.9565 125.459 97.4599 125.265 97.9447C123.399 102.613 120.017 105.753 115.386 107.561C114.029 108.091 112.58 108.402 111.17 107.563C110.995 107.459 110.842 107.052 110.583 107.379C110.417 107.589 110.41 107.904 110.592 108.164C111.1 108.876 111.866 108.973 112.585 109.027ZM187.192 174.61C188.678 174.699 191.369 173.959 192.359 173.241C193.679 172.287 194.268 170.844 193.876 169.637C193.727 169.177 193.617 168.998 193.134 169.361C191.229 170.797 189.047 171.694 186.804 172.441C185.169 172.988 183.516 173.48 181.869 173.994C182.164 174.088 182.442 174.116 182.712 174.084C185.993 173.715 189.167 172.93 192.211 171.629C192.592 171.466 193.184 170.935 193.384 171.334C193.645 171.858 192.895 172.078 192.498 172.322C190.884 173.31 189.137 174.008 187.192 174.61ZM91.2154 185.325C89.4405 185.019 87.6637 184.739 86.051 183.891C85.8161 183.768 85.6464 183.841 85.4581 183.978C84.3562 184.797 83.3588 185.746 81.9977 186.538C84.4233 186.652 86.6178 186.74 88.8103 186.861C90.5629 186.956 90.5629 186.975 91.2154 185.325ZM91.5231 142.629C90.3858 142.685 90.397 142.696 89.7146 143.42C87.0223 146.267 85.624 149.723 84.9678 153.521C84.6769 155.21 84.7254 156.911 84.9622 158.658C85.9708 152.826 86.9664 147.014 91.5231 142.629ZM199.067 143.215C198.595 144.572 198.381 145.944 198.118 147.303C198.06 147.607 198.161 147.827 198.453 147.986C199.29 148.441 200.029 149.035 200.735 149.783C201.132 148.635 201.476 147.583 201.985 146.599C202.205 146.174 202.081 145.819 201.792 145.499C201.006 144.626 200.176 143.8 199.067 143.215ZM146.675 93.1494C148.056 93.4141 149.303 93.6323 150.54 93.8952C154.071 94.6447 157.609 95.3531 161.174 95.933C161.538 95.9926 161.775 96.0206 161.75 95.5377C161.655 93.5763 161.912 91.6653 162.699 89.7487C161.968 89.8009 161.709 90.2185 161.493 90.7089C160.936 91.9692 160.684 93.3004 160.557 94.6633C160.529 94.9579 160.596 95.2599 160.057 95.1145C156.539 94.1636 152.935 93.6435 149.339 93.0991C148.517 92.9741 147.65 92.7653 146.675 93.1494ZM70.5502 170.346C72.6514 169.475 74.2566 168.023 75.558 166.231C76.6487 164.728 76.7606 163.88 76.1994 162.349C74.1317 164.896 71.9429 167.324 70.5502 170.346ZM82.7081 150.438C80.1519 151.413 77.2267 154.961 77.3926 156.592C78.4833 156.128 79.6169 155.844 80.7616 155.6C81.142 155.52 81.4981 155.388 81.5465 154.94C81.7087 153.428 82.3035 152.024 82.7081 150.438ZM190.628 153.939C191.52 154.934 192.017 156.074 192.124 157.381C192.206 158.4 192.053 159.497 192.379 160.427C193.009 162.223 191.909 163.254 190.992 164.419C190.936 164.49 190.929 164.527 191.094 164.6C192.428 163.44 193.552 162.176 193.486 160.188C193.442 158.818 193.239 157.483 192.894 156.161C192.586 154.979 191.782 154.291 190.628 153.939ZM142.815 105.464C140.666 105.156 138.527 104.808 136.389 104.459C133.817 104.038 131.23 103.736 128.614 103.847C128.379 103.857 128.038 103.78 128.015 104.118C127.989 104.519 128.355 104.392 128.569 104.383C131.783 104.243 134.904 104.901 138.039 105.46C139.623 105.744 141.217 105.87 142.815 105.464ZM112.809 120.21C109.809 118.308 108.521 115.595 108.256 112.178C106.304 115.709 109.334 119.261 112.809 120.21ZM201.798 116.201C200.635 116.725 199.427 117.059 198.19 117.294C198.077 117.316 197.877 117.322 197.929 117.467C198.315 118.561 197.288 118.591 196.783 118.864C195.498 119.555 194.074 119.565 192.409 119.304C195.603 120.631 198.198 119.192 201.798 116.201ZM200.083 152.472C200.569 150.005 200.113 149.265 197.726 148.545C197.803 149.181 197.454 149.86 198.118 150.341C198.871 150.887 199.477 151.571 200.083 152.472ZM179.293 91.3092C179.274 90.4441 178.683 89.7878 178.043 89.7748C177.467 89.7636 176.88 90.3845 176.886 90.9997C176.893 91.7007 177.749 92.6833 178.336 92.5602C179.047 92.4148 179.231 91.8033 179.293 91.3092ZM105.025 165.148C106.149 164.999 106.901 165.631 107.667 166.253C107.82 166.378 108.038 166.747 108.243 166.451C108.463 166.134 108.907 165.709 108.624 165.342C108.057 164.603 107.279 163.914 106.416 163.736C105.89 163.63 105.447 164.538 105.025 165.148ZM209.593 127.934C209.608 127.296 209.081 126.787 208.398 126.784C207.729 126.778 207.149 127.345 207.181 128.035C207.212 128.745 207.608 129.196 208.322 129.271C208.956 129.336 209.578 128.648 209.593 127.934ZM131.094 92.4223C133.799 92.1202 136.389 92.206 138.924 92.9909C136.864 91.3968 132.731 90.968 131.094 92.4223ZM151.731 102.843C150.845 102.142 149.818 101.715 148.768 101.364C148.265 101.196 147.933 100.976 147.709 100.467C147.364 99.6823 146.699 99.2386 145.83 99.1771C145.597 99.1603 145.232 98.9347 145.131 99.3579C145.041 99.742 145.386 99.7905 145.647 99.8688C146.484 100.122 147.172 100.542 147.398 101.461C147.437 101.618 147.458 101.785 147.652 101.782C149.109 101.754 150.344 102.565 151.731 102.843ZM208.454 116.608C208.862 114.825 208.861 113.296 208.512 111.712C208.098 112.165 207.727 112.571 207.354 112.978C207.233 113.108 207.05 113.201 207.147 113.436C207.557 114.419 207.96 115.403 208.454 116.608ZM132.315 179.109C130.32 181.053 128.325 182.998 126.183 185.086C128.586 183.264 130.741 181.48 132.315 179.109ZM132.529 134.983C130.971 135.772 129.684 136.835 128.519 138.039C128.338 138.227 127.82 138.39 128.127 138.718C128.401 139.01 128.936 139.135 129.281 138.749C130.385 137.513 131.45 136.242 132.529 134.983ZM173.955 88.2105C171.831 89.4 169.189 95.2152 169.7 97.3126C170.189 93.9063 171.859 91.0482 173.955 88.2105ZM112.807 164.559C110.894 166.576 108.942 168.554 106.906 170.454C109.399 169.007 111.299 166.977 112.807 164.559ZM151.09 90.7629C151.175 91.1936 151.239 91.7157 151.388 92.2135C151.537 92.7113 152.065 92.8436 152.443 92.7877C152.911 92.7187 152.633 92.219 152.596 91.9506C152.525 91.4397 152.316 90.9512 152.18 90.4478C152.061 90.0078 151.712 89.8475 151.343 89.909C150.875 89.9873 151.172 90.405 151.09 90.7629ZM146.885 89.3553C147.23 90.1943 147.558 90.9177 147.823 91.6653C148.002 92.1687 148.435 92.2414 148.778 92.1501C149.192 92.0401 148.906 91.6131 148.839 91.3782C148.567 90.4012 148.064 89.6033 146.885 89.3553ZM199.281 155.527C199.977 153.303 199.221 151.586 197.639 151.452C198.355 152.664 199.035 153.876 199.281 155.527ZM183.488 102.473C183.104 100.247 182.721 98.2467 182.554 96.2182C182.199 99.261 182.464 101.226 183.488 102.473ZM160.51 172.794C160.997 171.714 160.857 169.975 160.104 168.107C159.63 169.71 160.619 171.22 160.51 172.794ZM199.285 126.511C197.46 127.596 197.21 129.176 199.822 131.361C198.903 129.826 197.609 128.344 199.285 126.511ZM115.05 145.862C114.756 143.851 114.675 141.828 115.099 139.807C114.155 141.805 114.351 143.824 115.05 145.862ZM148.373 160.244C147.325 160.729 146.62 161.384 146.056 162.202C145.852 162.495 145.772 162.786 146.098 163.006C146.503 163.28 146.542 162.815 146.675 162.638C147.228 161.896 147.748 161.132 148.373 160.244ZM184.735 147.779C184.873 148.944 185.354 150.007 185.682 151.111C185.757 151.364 185.969 151.422 186.204 151.344C186.396 151.28 186.396 151.096 186.335 150.961C185.842 149.884 185.494 148.733 184.735 147.779ZM150.765 92.0587C150.581 91.4136 150.664 90.6846 150.349 90.0321C150.247 89.8195 150.073 89.7114 149.833 89.717C149.66 89.7207 149.628 89.8512 149.652 89.9668C149.822 90.7406 149.997 91.5143 150.193 92.2824C150.237 92.4596 150.402 92.6255 150.605 92.5677C150.845 92.5006 150.691 92.2545 150.765 92.0587ZM213.818 93.7292C213.51 95.2674 212.841 96.6079 211.73 97.7191C213.294 96.8372 214.053 95.534 213.818 93.7292ZM127.654 103.939C127.641 103.752 127.695 103.34 127.189 103.363C126.748 103.383 126.395 103.652 126.393 104.107C126.392 104.578 126.792 104.823 127.208 104.836C127.687 104.852 127.65 104.427 127.654 103.939ZM179.874 176.073C181.716 176.305 183.398 176.517 185.08 176.73C183.43 176.222 181.772 175.812 179.874 176.073ZM78.6343 143.582C78.625 143.373 78.5802 142.995 78.0675 142.982C77.6331 142.971 77.4709 143.209 77.4784 143.621C77.484 144.003 77.6331 144.339 78.0097 144.367C78.3435 144.393 78.6809 144.222 78.6343 143.582ZM141.995 171.727C141.902 171.41 141.769 171.121 141.385 171.151C140.981 171.181 140.783 171.522 140.783 171.839C140.783 172.136 141.04 172.441 141.389 172.43C141.792 172.417 141.911 172.069 141.995 171.727Z" fill="#D61103"/>
<path d="M148.259 236.632C146.16 236.296 144.049 236.016 141.963 235.617C133.81 234.057 125.728 232.185 117.754 229.866C107.745 226.955 97.8825 223.629 88.318 219.468C79.8834 215.799 71.6911 211.674 64.198 206.281C59.9993 203.257 56.0467 199.958 52.922 195.791C51.1694 193.453 49.7823 190.937 50.0284 187.849C50.2726 184.773 52.042 182.662 54.4191 180.953C56.1269 179.724 58.0827 179.084 60.1168 178.648C59.0708 179.323 58.0062 179.938 57.0722 180.772C53.9027 183.6 53.2837 187.06 55.2916 190.815C56.8801 193.787 59.1137 196.228 61.5766 198.473C68.7453 205.002 77.0345 209.836 85.6128 214.21C94.5918 218.787 103.888 222.639 113.363 226.051C124.024 229.892 134.869 233.14 145.873 235.85C146.678 236.048 147.48 236.257 148.283 236.46C148.274 236.518 148.267 236.574 148.259 236.632Z" fill="#D61103"/>
<path d="M84.4736 204.795C103.002 212.991 121.913 220.141 141.141 226.458C121.369 221.526 102.365 214.59 84.4736 204.795Z" fill="#D61103"/>
<path d="M59.013 181.98C57.8458 185.483 59.2274 188.239 61.4013 190.771C64.8076 194.74 69.0193 197.747 73.287 200.686C73.7344 200.993 74.1838 201.299 74.5287 201.787C73.1695 201.03 71.8048 200.285 70.4531 199.515C67.6769 197.934 64.9679 196.235 62.4584 194.257C60.6779 192.855 59.0036 191.317 57.8682 189.303C56.3953 186.691 56.9863 184.047 59.013 181.98Z" fill="#D61103"/>
<path d="M128.066 189.762C138.32 188.481 148.602 187.985 158.927 188.653C148.638 188.94 138.342 189.074 128.066 189.762Z" fill="#D61103"/>
<path d="M148.259 135.878C150.058 134.379 152.208 134.116 154.203 135.241C155.963 136.232 157.401 137.577 158.282 139.436C159.133 141.229 158.467 143.33 156.761 144.376C156.271 144.676 156.252 144.236 156.123 144.011C154.281 140.756 151.503 138.378 148.656 136.068C148.543 135.977 148.39 135.936 148.254 135.873C148.257 135.873 148.259 135.878 148.259 135.878Z" fill="#D61103"/>
<path d="M177.096 100.613C174.659 100.747 172.551 101.468 170.425 102.097C169.064 102.499 167.714 102.949 166.372 103.411C165.867 103.585 165.626 103.547 165.677 102.939C165.701 102.634 165.664 102.32 165.623 102.013C165.391 100.313 165.382 100.277 166.989 100.005C170.198 99.4623 173.392 99.5835 176.557 100.348C176.695 100.383 176.822 100.477 177.096 100.613Z" fill="#D61103"/>
<path d="M164.383 112.418C162.666 112.038 162.968 110.725 162.845 109.607C162.455 106.064 162.052 102.524 161.653 98.9664C162.474 98.862 162.824 99.0839 162.942 99.9825C163.328 102.925 163.706 105.868 163.997 108.822C164.114 110.024 164.252 111.223 164.383 112.418Z" fill="#D61103"/>
<path d="M137.981 101.493C137.494 100.363 137.986 97.7303 138.736 96.9342C139 96.6526 139.297 96.7459 139.593 96.7738C139.856 96.7999 140.009 96.9901 139.931 97.2231C139.429 98.6849 139.015 100.193 137.981 101.493Z" fill="#D61103"/>
<path d="M134.835 99.5742C134.899 98.4537 135.083 97.4879 135.484 96.5669C135.693 96.0859 136.031 95.905 136.521 96.0579C137.082 96.2331 136.84 96.6769 136.746 96.9901C136.482 97.8776 136.18 98.7576 135.848 99.6227C135.702 100.001 135.591 100.631 135.106 100.529C134.683 100.441 134.981 99.8128 134.835 99.5742Z" fill="#D61103"/>
<path d="M132.594 99.865C131.938 99.5332 131.899 98.972 131.929 98.3586C131.964 97.5811 132.151 96.8484 132.425 96.125C132.624 95.5974 133.004 95.5396 133.463 95.6459C134.071 95.7875 133.663 96.1996 133.61 96.442C133.396 97.432 133.122 98.4089 132.853 99.3859C132.807 99.5555 132.684 99.7028 132.594 99.865Z" fill="#D61103"/>
<path d="M190.872 159.885C190.841 160.481 190.46 160.904 190.117 161.337C189.618 161.971 189.081 162.573 188.406 163.028C188.037 163.276 187.587 163.543 187.254 163.103C186.985 162.75 187.366 162.426 187.612 162.17C188.411 161.343 189.112 160.444 189.72 159.467C189.864 159.238 189.905 158.788 190.352 158.977C190.731 159.135 190.895 159.467 190.872 159.885Z" fill="#D61103"/>
<path d="M185.82 160.753C185.894 159.838 186.446 159.18 187.002 158.514C187.418 158.016 187.774 157.47 188.186 156.969C188.378 156.734 188.419 156.163 188.838 156.372C189.206 156.555 189.398 157.023 189.316 157.498C189.129 158.583 186.873 160.649 185.797 160.725L185.82 160.753Z" fill="#D61103"/>
<path d="M157.319 68.1334C154.359 68.1334 152.008 67.1757 150.267 65.2603C148.526 63.3101 147.655 60.6982 147.655 57.4247C147.655 55.4048 148.003 53.4198 148.7 51.4696C149.396 49.5194 150.371 47.7607 151.625 46.1936C152.913 44.5917 154.428 43.3205 156.17 42.3803C157.911 41.44 159.826 40.9699 161.916 40.9699C164.911 40.9699 167.261 41.945 168.968 43.8952C170.709 45.8105 171.58 48.405 171.58 51.6786C171.58 53.6984 171.231 55.6834 170.535 57.6336C169.838 59.5838 168.846 61.3599 167.557 62.9619C166.304 64.529 164.806 65.7827 163.065 66.723C161.324 67.6633 159.408 68.1334 157.319 68.1334ZM156.744 65.1559C157.65 65.1559 158.538 64.7554 159.408 63.9544C160.314 63.1534 161.15 62.1261 161.916 60.8724C162.717 59.5838 163.413 58.1734 164.005 56.6411C164.632 55.1088 165.12 53.6113 165.468 52.1487C165.816 50.686 165.99 49.3801 165.99 48.2309C165.99 46.8379 165.659 45.7757 164.998 45.0444C164.336 44.3131 163.5 43.9474 162.49 43.9474C161.585 43.9474 160.679 44.3479 159.774 45.1489C158.903 45.9498 158.068 46.9946 157.267 48.2831C156.466 49.5368 155.752 50.9298 155.125 52.4621C154.533 53.9944 154.063 55.4919 153.714 56.9546C153.366 58.4172 153.192 59.7231 153.192 60.8724C153.192 62.2654 153.523 63.3275 154.185 64.0589C154.881 64.7902 155.734 65.1559 156.744 65.1559Z" fill="#494949"/>
<path d="M130.614 68.1334C128.281 68.1334 126.505 67.4021 125.286 65.9394C124.102 64.4768 123.51 62.7181 123.51 60.6635C123.51 59.6187 123.615 58.5217 123.824 57.3725C124.067 56.2233 124.346 55.1089 124.659 54.0293L129.047 36.8431C129.187 36.3904 129.256 35.9203 129.256 35.4327C129.256 34.8407 129.065 34.388 128.682 34.0745C128.333 33.7263 127.689 33.5522 126.749 33.5522H125.234L125.965 31.0447L136.778 30L131.502 48.1264H131.816C133.244 45.5842 134.793 43.7559 136.465 42.6415C138.171 41.5271 139.878 40.9699 141.584 40.9699C143.43 40.9699 144.91 41.5967 146.025 42.8504C147.174 44.1041 147.748 45.7583 147.748 47.813C147.748 49.798 147.4 51.7657 146.704 53.7159C146.042 55.6661 145.119 57.5118 143.935 59.253C142.751 60.9595 141.41 62.4918 139.913 63.8499C138.45 65.1733 136.918 66.218 135.316 66.9842C133.714 67.7504 132.147 68.1334 130.614 68.1334ZM132.338 64.3201C133.453 64.3201 134.567 63.8499 135.681 62.9097C136.796 61.9346 137.806 60.6983 138.711 59.2008C139.652 57.6685 140.4 56.084 140.957 54.4472C141.55 52.8104 141.846 51.3129 141.846 49.9547C141.846 48.8403 141.567 47.9175 141.01 47.1862C140.487 46.4548 139.686 46.0892 138.607 46.0892C137.527 46.0892 136.43 46.5767 135.316 47.5518C134.201 48.5269 133.174 49.7806 132.234 51.3129C131.294 52.8452 130.527 54.4472 129.935 56.1188C129.378 57.7556 129.1 59.253 129.1 60.6112C129.1 61.7256 129.378 62.6311 129.935 63.3276C130.493 63.9892 131.294 64.3201 132.338 64.3201Z" fill="#494949"/>
<path d="M101.698 67.611L105.982 51.0517C106.435 49.3801 106.661 48.1612 106.661 47.3951C106.661 46.9075 106.539 46.5245 106.295 46.2459C106.086 45.9324 105.773 45.7757 105.355 45.7757C104.659 45.7757 103.962 46.2807 103.266 47.2906C102.569 48.3005 99.1203 56.8935 98.4934 58.5999L96.2993 57.4982C97.1699 55.0256 100.758 46.1414 101.698 44.7832C102.639 43.3902 103.596 42.4151 104.571 41.8579C105.581 41.2659 106.539 40.9699 107.445 40.9699C108.698 40.9699 109.691 41.4052 110.422 42.2758C111.153 43.1116 111.519 44.1912 111.519 45.5145C111.519 46.2459 111.432 46.9772 111.258 47.7085C111.084 48.4398 110.892 49.1189 110.683 49.7458H110.944C112.198 46.5419 113.643 44.2782 115.28 42.9549C116.917 41.6315 118.606 40.9699 120.347 40.9699C121.74 40.9699 122.855 41.3529 123.69 42.1191C124.561 42.8504 124.996 43.7559 124.996 44.8354C124.996 45.8454 124.7 46.6638 124.108 47.2906C123.516 47.8826 122.837 48.1786 122.071 48.1786C121.444 48.1786 120.939 48.0393 120.556 47.7607C120.173 47.4473 119.773 47.1513 119.355 46.8727C118.937 46.5593 118.362 46.4026 117.631 46.4026C116.969 46.4026 116.29 46.6986 115.594 47.2906C114.897 47.8826 114.148 48.8751 113.347 50.2681C112.546 51.6611 111.693 53.5591 110.788 55.962C109.917 58.3301 109.064 61.3599 108.228 65.0514L107.601 67.611H101.698Z" fill="#494949"/>
<path d="M76.1952 68.1334C74.454 68.1334 73.0958 67.6284 72.1207 66.6185C71.1804 65.5737 70.7103 64.3026 70.7103 62.8052C70.7103 62.0042 70.8496 61.1161 71.1282 60.141C71.4416 59.1311 71.7725 58.2431 72.1207 57.4769L75.5161 49.7458C75.7947 49.1189 76.0037 48.5617 76.143 48.0742C76.3171 47.5518 76.4042 47.1165 76.4042 46.7682C76.4042 45.9324 76.0385 45.5145 75.3072 45.5145C74.6107 45.5145 73.862 46.0021 73.061 46.9772C72.26 47.9523 67.9131 55.7183 67.1818 57.1113H65.04C71.8 42.8979 74.2276 40.9699 77.6056 40.9699C79.0335 40.9699 80.1479 41.3878 80.9488 42.2236C81.7846 43.0594 82.2025 44.1041 82.2025 45.3578C82.2025 46.0891 82.0632 46.8901 81.7846 47.7607C81.506 48.6314 81.1752 49.5368 80.7921 50.4771L77.8668 57.1113C77.5882 57.7729 77.327 58.4172 77.0833 59.0441C76.8743 59.6361 76.7698 60.2281 76.7698 60.8201C76.7698 61.4818 76.9266 62.0042 77.24 62.3873C77.5882 62.7703 78.1106 62.9619 78.8071 62.9619C79.8867 62.9619 81.0881 62.2131 82.4115 60.7157C83.7697 59.1834 85.1627 56.9371 86.5905 53.977C88.0183 50.9821 89.3417 47.2906 90.5606 42.9026L90.9785 41.4922H96.7769L91.2397 59.5142C91.1004 60.0366 90.9785 60.5415 90.874 61.0291C90.7695 61.4818 90.7173 61.8649 90.7173 62.1783C90.7173 62.9445 91.0655 63.3275 91.762 63.3275C92.4585 63.3275 93.1725 62.7877 93.9038 61.7082C94.6699 60.6286 95.4635 59.2046 96.2993 57.4982L98.5529 58.4172C97.1599 62.0738 95.6624 64.6161 94.0605 66.0439C92.4585 67.4369 90.874 68.1334 89.3069 68.1334C88.0183 68.1334 87.0258 67.7503 86.3293 66.9842C85.6328 66.218 85.2846 65.2429 85.2846 64.0589C85.2846 63.3624 85.3542 62.6659 85.4935 61.9694C85.6676 61.2729 85.8418 60.5415 86.0159 59.7754H85.7547C84.4313 62.3873 82.9687 64.4419 81.3667 65.9394C79.7996 67.4021 78.0758 68.1334 76.1952 68.1334Z" fill="#494949"/>
<path d="M38.888 67.6063L39.6716 64.681H40.5074C41.9701 64.681 43.0322 64.472 43.6939 64.0541C44.4252 63.5666 45.0172 62.5392 45.47 60.9721L52.8355 33.6519H52.2609C49.5793 33.7215 47.3853 34.4006 45.6789 35.6891C44.5993 36.4553 43.7113 37.413 43.0148 38.5622C42.3531 39.6766 41.7785 40.9651 41.291 42.4278L40.7164 44.2039H38L41.5521 31.04H71.5887L67.9844 44.2039H65.3202L65.7381 42.5845C66.0516 41.4353 66.2083 40.4253 66.2083 39.5547C66.2083 37.9528 65.7556 36.6642 64.8501 35.6891C63.5964 34.4006 61.7681 33.7215 59.3652 33.6519H58.895L51.5818 60.8154C51.3728 61.5467 51.2683 62.1562 51.2683 62.6437C51.2683 63.4447 51.5818 63.9845 52.2086 64.2631C52.8355 64.5417 53.5842 64.681 54.4548 64.681H55.5518L54.716 67.6063H38.888Z" fill="#494949"/>
<defs>
<filter id="filter0_d_1960_1496" x="0" y="0" width="266" height="268" filterUnits="userSpaceOnUse" color-interpolation-filters="sRGB">
<feFlood flood-opacity="0" result="BackgroundImageFix"/>
<feColorMatrix in="SourceAlpha" type="matrix" values="0 0 0 0 0 0 0 0 0 0 0 0 0 0 0 0 0 0 127 0" result="hardAlpha"/>
<feMorphology radius="2" operator="erode" in="SourceAlpha" result="effect1_dropShadow_1960_1496"/>
<feOffset dy="10"/>
<feGaussianBlur stdDeviation="5"/>
<feComposite in2="hardAlpha" operator="out"/>
<feColorMatrix type="matrix" values="0 0 0 0 0 0 0 0 0 0 0 0 0 0 0 0 0 0 0.25 0"/>
<feBlend mode="normal" in2="BackgroundImageFix" result="effect1_dropShadow_1960_1496"/>
<feBlend mode="normal" in="SourceGraphic" in2="effect1_dropShadow_1960_1496" result="shape"/>
</filter>
<linearGradient id="paint0_linear_1960_1496" x1="63.5555" y1="28.2258" x2="189.385" y2="221.963" gradientUnits="userSpaceOnUse">
<stop stop-color="white"/>
<stop offset="1" stop-color="#E6E6E6"/>
</linearGradient>
<linearGradient id="paint1_linear_1960_1496" x1="8" y1="0" x2="254" y2="246.064" gradientUnits="userSpaceOnUse">
<stop stop-color="#ED2E2E"/>
<stop offset="1" stop-color="#830000"/>
</linearGradient>
</defs>
</svg>
